<svg width="121" height="40" viewBox="0 0 121 40" fill="none" xmlns="http://www.w3.org/2000/svg">
<path d="M110.635 0.00013H10.0347C9.66798 0.00013 9.30568 0.00013 8.93995 0.00213C8.6338 0.00413 8.33009 0.00994 8.021 0.01483C7.34951 0.0227318 6.67961 0.0818063 6.0171 0.19154C5.35552 0.303663 4.71467 0.515046 4.11622 0.81854C3.5185 1.1246 2.97235 1.5223 2.49757 1.9972C2.0203 2.47077 1.62246 3.01815 1.31935 3.61829C1.0154 4.21724 0.804641 4.85907 0.69435 5.52161C0.583011 6.18332 0.523098 6.85265 0.51515 7.52361C0.50587 7.83021 0.50489 8.13783 0.5 8.44447V31.5587C0.50489 31.8692 0.50587 32.17 0.51515 32.4806C0.523101 33.1516 0.583013 33.8209 0.69435 34.4825C0.804336 35.1455 1.01511 35.7877 1.31935 36.3868C1.62233 36.985 2.02022 37.5302 2.49757 38.0011C2.97054 38.4781 3.51705 38.8761 4.11622 39.1798C4.71467 39.4841 5.35545 39.6968 6.0171 39.8106C6.67972 39.9195 7.34956 39.9786 8.021 39.9874C8.33009 39.9942 8.6338 39.9981 8.93995 39.9981C9.30567 40.0001 9.668 40.0001 10.0347 40.0001H110.635C110.994 40.0001 111.359 40.0001 111.719 39.9981C112.023 39.9981 112.336 39.9942 112.641 39.9874C113.311 39.9791 113.979 39.92 114.641 39.8106C115.304 39.696 115.948 39.4834 116.549 39.1798C117.147 38.8759 117.693 38.478 118.166 38.0011C118.642 37.5284 119.041 36.9836 119.348 36.3868C119.65 35.7872 119.858 35.1451 119.967 34.4825C120.078 33.8208 120.14 33.1516 120.152 32.4806C120.156 32.17 120.156 31.8692 120.156 31.5587C120.164 31.1954 120.164 30.8341 120.164 30.4649V9.53626C120.164 9.17005 120.164 8.80677 120.156 8.44447C120.156 8.13783 120.156 7.83021 120.152 7.52357C120.14 6.85255 120.078 6.18337 119.967 5.52157C119.858 4.85941 119.649 4.21763 119.348 3.61825C118.73 2.41533 117.752 1.43616 116.549 0.81845C115.948 0.515697 115.304 0.30437 114.641 0.19145C113.98 0.0812328 113.311 0.0221378 112.641 0.01469C112.336 0.00981 112.023 0.00395 111.719 0.002C111.359 0 110.994 0 110.635 0V0.00013Z" fill="#A6A6A6"/>
<path d="M8.94291 39.125C8.63823 39.125 8.34091 39.1211 8.03862 39.1143C7.41241 39.1061 6.78765 39.0516 6.16948 38.9512C5.59307 38.8519 5.03469 38.6673 4.51274 38.4033C3.99559 38.1415 3.5239 37.7983 3.11574 37.3867C2.70168 36.98 2.35696 36.5082 2.09523 35.9902C1.83062 35.4688 1.6475 34.9099 1.55223 34.333C1.44936 33.7131 1.3937 33.0863 1.38573 32.458C1.37939 32.2471 1.37109 31.5449 1.37109 31.5449V8.44434C1.37109 8.44434 1.37993 7.75293 1.38578 7.5498C1.39341 6.92248 1.44875 6.29665 1.55131 5.67773C1.64675 5.09925 1.83002 4.53875 2.09477 4.01563C2.35554 3.49794 2.69835 3.02586 3.10991 2.61768C3.52102 2.20562 3.99422 1.8606 4.51225 1.59521C5.033 1.33209 5.59033 1.14873 6.16557 1.05127C6.78577 0.949836 7.41269 0.894996 8.04108 0.88721L8.9434 0.875H111.712L112.625 0.8877C113.248 0.895099 113.869 0.94945 114.483 1.05029C115.065 1.14898 115.628 1.33362 116.154 1.59814C117.192 2.13299 118.037 2.97916 118.569 4.01807C118.83 4.53758 119.01 5.09351 119.105 5.66699C119.208 6.29099 119.266 6.92174 119.278 7.5542C119.281 7.8374 119.281 8.1416 119.281 8.44434C119.289 8.81934 119.289 9.17627 119.289 9.53613V30.4648C119.289 30.8281 119.289 31.1826 119.281 31.54C119.281 31.8652 119.281 32.1631 119.277 32.4697C119.266 33.0909 119.209 33.7104 119.106 34.3232C119.013 34.9043 118.831 35.4675 118.566 35.9932C118.303 36.5056 117.96 36.9733 117.551 37.3789C117.142 37.7927 116.67 38.1379 116.151 38.4014C115.626 38.6674 115.064 38.8527 114.483 38.9512C113.865 39.0522 113.241 39.1067 112.614 39.1143C112.321 39.1211 112.015 39.125 111.717 39.125L110.633 39.127L8.94291 39.125Z" fill="black"/>
<path d="M25.27 20.3003C25.2807 19.4657 25.5024 18.6473 25.9145 17.9213C26.3265 17.1954 26.9154 16.5854 27.6265 16.1483C27.1748 15.5031 26.5788 14.9722 25.886 14.5976C25.1932 14.2231 24.4226 14.0152 23.6354 13.9906C21.9561 13.8143 20.3282 14.9954 19.4725 14.9954C18.6002 14.9954 17.2827 14.0081 15.864 14.0373C14.9463 14.0669 14.0519 14.3338 13.2681 14.8118C12.4842 15.2899 11.8375 15.9629 11.391 16.7651C9.45705 20.1136 10.8996 25.0346 12.7522 27.7412C13.6791 29.0666 14.7624 30.547 16.1799 30.4945C17.5669 30.437 18.085 29.61 19.7593 29.61C21.418 29.61 21.9041 30.4945 23.3503 30.4611C24.8387 30.437 25.7764 29.1299 26.6708 27.792C27.3368 26.8476 27.8492 25.8039 28.1892 24.6995C27.3245 24.3338 26.5866 23.7216 26.0675 22.9393C25.5483 22.157 25.271 21.2392 25.27 20.3003Z" fill="white"/>
<path d="M22.5395 12.2113C23.3511 11.2371 23.7509 9.98494 23.654 8.7207C22.4142 8.85092 21.269 9.44348 20.4465 10.3803C20.0443 10.838 19.7363 11.3704 19.5401 11.9472C19.3438 12.524 19.2632 13.1337 19.3028 13.7417C19.9229 13.7481 20.5364 13.6137 21.0971 13.3486C21.6577 13.0835 22.1509 12.6946 22.5395 12.2113Z" fill="white"/>
<path d="M42.8047 27.1397H38.0713L36.9346 30.4961H34.9297L39.4131 18.0781H41.4961L45.9795 30.4961H43.9404L42.8047 27.1397ZM38.5615 25.5908H42.3135L40.4639 20.1436H40.4121L38.5615 25.5908Z" fill="white"/>
<path d="M55.6612 25.9695C55.6612 28.7829 54.1553 30.5905 51.8828 30.5905C51.3072 30.6207 50.7347 30.4881 50.2309 30.2079C49.7271 29.9278 49.3124 29.5114 49.0342 29.0065H48.9912V33.4909H47.1328V21.4421H48.9317V22.948H48.9659C49.2568 22.4455 49.6785 22.0313 50.1862 21.7495C50.6938 21.4676 51.2683 21.3287 51.8487 21.3474C54.1465 21.3474 55.6612 23.1638 55.6612 25.9695ZM53.751 25.9695C53.751 24.1365 52.8037 22.9314 51.3584 22.9314C49.9385 22.9314 48.9834 24.1618 48.9834 25.9695C48.9834 27.7937 49.9385 29.0154 51.3584 29.0154C52.8037 29.0154 53.751 27.8191 53.751 25.9695Z" fill="white"/>
<path d="M65.626 25.9694C65.626 28.7829 64.1201 30.5905 61.8477 30.5905C61.272 30.6206 60.6995 30.488 60.1957 30.2079C59.6919 29.9278 59.2772 29.5114 58.9991 29.0065H58.9561V33.4909H57.0977V21.4421H58.8965V22.948H58.9307C59.2216 22.4455 59.6433 22.0313 60.151 21.7495C60.6586 21.4676 61.2332 21.3287 61.8135 21.3474C64.1114 21.3474 65.626 23.1638 65.626 25.9694ZM63.7158 25.9694C63.7158 24.1364 62.7686 22.9314 61.3233 22.9314C59.9033 22.9314 58.9483 24.1618 58.9483 25.9694C58.9483 27.7937 59.9033 29.0153 61.3233 29.0153C62.7686 29.0153 63.7159 27.8191 63.7159 25.9694H63.7158Z" fill="white"/>
<path d="M72.211 27.0362C72.3487 28.2676 73.545 29.0762 75.1797 29.0762C76.7461 29.0762 77.8731 28.2676 77.8731 27.1572C77.8731 26.1934 77.1934 25.6162 75.584 25.2207L73.9746 24.833C71.6944 24.2822 70.6358 23.2158 70.6358 21.4854C70.6358 19.3428 72.503 17.8711 75.1543 17.8711C77.7783 17.8711 79.5772 19.3428 79.6377 21.4854H77.7617C77.6494 20.2461 76.625 19.4981 75.1279 19.4981C73.6309 19.4981 72.6065 20.2549 72.6065 21.3565C72.6065 22.2344 73.2608 22.751 74.8613 23.1465L76.2295 23.4824C78.7773 24.0849 79.8359 25.1084 79.8359 26.9248C79.8359 29.248 77.9854 30.7031 75.042 30.7031C72.2881 30.7031 70.4287 29.2822 70.3086 27.0361L72.211 27.0362Z" fill="white"/>
<path d="M83.8476 19.3008V21.4434H85.5693V22.915H83.8476V27.9062C83.8476 28.6816 84.1924 29.043 84.9492 29.043C85.1536 29.0394 85.3577 29.0251 85.5605 29V30.4629C85.2203 30.5264 84.8744 30.5552 84.5283 30.5488C82.6953 30.5488 81.9805 29.8603 81.9805 28.1045V22.915H80.6641V21.4434H81.9804V19.3008H83.8476Z" fill="white"/>
<path d="M86.5664 25.9707C86.5664 23.1221 88.2441 21.332 90.8604 21.332C93.4854 21.332 95.1553 23.122 95.1553 25.9707C95.1553 28.8272 93.4941 30.6094 90.8604 30.6094C88.2275 30.6094 86.5664 28.8271 86.5664 25.9707ZM93.2617 25.9707C93.2617 24.0166 92.3662 22.8633 90.8603 22.8633C89.3545 22.8633 88.46 24.0254 88.46 25.9707C88.46 27.9326 89.3545 29.0772 90.8603 29.0772C92.3662 29.0772 93.2617 27.9326 93.2617 25.9707H93.2617Z" fill="white"/>
<path d="M96.6875 21.442H98.46V22.983H98.503C98.6229 22.5017 98.9048 22.0764 99.3014 21.7785C99.698 21.4806 100.185 21.3284 100.681 21.3473C100.895 21.3465 101.108 21.3698 101.317 21.4166V23.1549C101.047 23.0723 100.765 23.0343 100.482 23.0426C100.212 23.0316 99.9433 23.0792 99.6935 23.1821C99.4436 23.285 99.219 23.4408 99.035 23.6386C98.851 23.8365 98.7121 24.0719 98.6276 24.3286C98.5432 24.5852 98.5153 24.8571 98.5459 25.1256V30.4957H96.6875L96.6875 21.442Z" fill="white"/>
<path d="M109.886 27.8379C109.636 29.4814 108.035 30.6094 105.987 30.6094C103.354 30.6094 101.719 28.8447 101.719 26.0137C101.719 23.1738 103.362 21.332 105.909 21.332C108.414 21.332 109.989 23.0527 109.989 25.7978V26.4346H103.595V26.5469C103.565 26.8801 103.607 27.2157 103.717 27.5316C103.827 27.8474 104.003 28.1362 104.234 28.3787C104.464 28.6213 104.743 28.8121 105.053 28.9384C105.363 29.0647 105.696 29.1236 106.03 29.1113C106.469 29.1525 106.91 29.0508 107.287 28.8213C107.664 28.5919 107.956 28.247 108.121 27.8379L109.886 27.8379ZM103.604 25.1357H108.13C108.147 24.8361 108.101 24.5363 107.996 24.2551C107.892 23.9739 107.73 23.7174 107.522 23.5016C107.313 23.2858 107.062 23.1155 106.785 23.0013C106.507 22.8871 106.209 22.8314 105.909 22.8379C105.607 22.8361 105.307 22.8942 105.027 23.009C104.746 23.1237 104.492 23.2928 104.278 23.5064C104.063 23.72 103.893 23.974 103.778 24.2537C103.662 24.5333 103.603 24.8331 103.604 25.1357V25.1357Z" fill="white"/>
<path d="M38.3271 8.73138C38.7168 8.70342 39.1077 8.76228 39.4718 8.90371C39.8359 9.04515 40.1641 9.26563 40.4327 9.54925C40.7013 9.83288 40.9036 10.1726 41.025 10.5438C41.1464 10.9151 41.1839 11.3087 41.1348 11.6962C41.1348 13.6025 40.1045 14.6982 38.3271 14.6982H36.1719V8.73138H38.3271ZM37.0986 13.8544H38.2236C38.502 13.871 38.7806 13.8254 39.0392 13.7208C39.2977 13.6161 39.5297 13.4552 39.7182 13.2496C39.9067 13.0441 40.0469 12.7991 40.1288 12.5324C40.2107 12.2658 40.2321 11.9843 40.1914 11.7084C40.2291 11.4335 40.2056 11.1538 40.1224 10.8891C40.0393 10.6244 39.8987 10.3814 39.7106 10.1775C39.5226 9.97358 39.2917 9.81378 39.0346 9.70954C38.7776 9.6053 38.5006 9.55922 38.2236 9.57459H37.0986V13.8544Z" fill="white"/>
<path d="M42.1819 12.4458C42.1536 12.1498 42.1875 11.8513 42.2813 11.5692C42.3751 11.2871 42.5269 11.0278 42.7268 10.8078C42.9268 10.5878 43.1705 10.4121 43.4423 10.2918C43.7142 10.1715 44.0082 10.1094 44.3055 10.1094C44.6027 10.1094 44.8967 10.1715 45.1686 10.2918C45.4404 10.4121 45.6841 10.5878 45.8841 10.8078C46.084 11.0278 46.2358 11.2871 46.3296 11.5692C46.4235 11.8513 46.4573 12.1498 46.429 12.4458C46.4578 12.742 46.4244 13.041 46.3308 13.3235C46.2372 13.606 46.0855 13.8658 45.8855 14.0862C45.6856 14.3067 45.4417 14.4828 45.1695 14.6033C44.8974 14.7239 44.6031 14.7861 44.3055 14.7861C44.0078 14.7861 43.7135 14.7239 43.4414 14.6033C43.1693 14.4828 42.9254 14.3067 42.7254 14.0862C42.5254 13.8658 42.3737 13.606 42.2801 13.3235C42.1865 13.041 42.1531 12.742 42.1819 12.4458ZM45.5149 12.4458C45.5149 11.4697 45.0764 10.8989 44.3069 10.8989C43.5345 10.8989 43.0999 11.4697 43.0999 12.4458C43.0999 13.4297 43.5345 13.9961 44.3069 13.9961C45.0765 13.996 45.5149 13.4257 45.5149 12.4458H45.5149Z" fill="white"/>
<path d="M52.0742 14.6982H51.1523L50.2217 11.3818H50.1514L49.2246 14.6982H48.3115L47.0703 10.1953H47.9717L48.7783 13.6313H48.8447L49.7705 10.1953H50.6231L51.5488 13.6313H51.6191L52.4219 10.1953H53.3105L52.0742 14.6982Z" fill="white"/>
<path d="M54.3555 10.1949H55.2109V10.9102H55.2773C55.39 10.6533 55.58 10.4379 55.8209 10.2941C56.0617 10.1503 56.3415 10.0852 56.6211 10.1079C56.8402 10.0915 57.0602 10.1245 57.2648 10.2046C57.4694 10.2847 57.6533 10.4098 57.803 10.5707C57.9527 10.7315 58.0643 10.924 58.1295 11.1338C58.1947 11.3436 58.2118 11.5654 58.1797 11.7827V14.6977H57.291V12.0059C57.291 11.2823 56.9766 10.9224 56.3193 10.9224C56.1706 10.9155 56.0221 10.9408 55.884 10.9966C55.746 11.0525 55.6216 11.1375 55.5195 11.2459C55.4174 11.3543 55.3399 11.4834 55.2924 11.6246C55.2448 11.7657 55.2284 11.9154 55.2441 12.0635V14.6978H54.3555L54.3555 10.1949Z" fill="white"/>
<path d="M59.5938 8.4375H60.4824V14.6982H59.5938V8.4375Z" fill="white"/>
<path d="M61.7171 12.4439C61.6888 12.1479 61.7226 11.8494 61.8165 11.5673C61.9104 11.2852 62.0621 11.0259 62.2621 10.8059C62.4621 10.5859 62.7058 10.4101 62.9777 10.2898C63.2495 10.1696 63.5435 10.1074 63.8408 10.1074C64.1381 10.1074 64.4321 10.1696 64.704 10.2898C64.9759 10.4101 65.2196 10.5859 65.4196 10.8059C65.6195 11.0259 65.7713 11.2852 65.8652 11.5673C65.959 11.8494 65.9929 12.1479 65.9646 12.4439C65.9934 12.7401 65.9599 13.0391 65.8663 13.3216C65.7727 13.6042 65.621 13.864 65.421 14.0844C65.221 14.3048 64.9771 14.4809 64.7049 14.6014C64.4328 14.722 64.1385 14.7842 63.8408 14.7842C63.5432 14.7842 63.2489 14.722 62.9767 14.6014C62.7046 14.4809 62.4607 14.3048 62.2607 14.0844C62.0607 13.864 61.909 13.6042 61.8153 13.3216C61.7217 13.0391 61.6882 12.7401 61.7171 12.4439ZM65.0501 12.4439C65.0501 11.4678 64.6116 10.897 63.8421 10.897C63.0696 10.897 62.6351 11.4678 62.6351 12.4439C62.6351 13.4278 63.0696 13.9942 63.8421 13.9942C64.6116 13.9942 65.0501 13.4239 65.0501 12.4439H65.0501Z" fill="white"/>
<path d="M66.9023 13.4258C66.9023 12.6152 67.5059 12.1479 68.5771 12.0815L69.7969 12.0112V11.6226C69.7969 11.147 69.4824 10.8784 68.875 10.8784C68.3789 10.8784 68.0352 11.0605 67.9365 11.3789H67.0762C67.167 10.6055 67.8945 10.1094 68.916 10.1094C70.0449 10.1094 70.6816 10.6714 70.6816 11.6226V14.6992H69.8262V14.0664H69.7559C69.6131 14.2934 69.4127 14.4784 69.1751 14.6027C68.9375 14.7269 68.6712 14.7858 68.4033 14.7734C68.2143 14.7931 68.0232 14.7729 67.8425 14.7142C67.6617 14.6555 67.4953 14.5596 67.3538 14.4326C67.2124 14.3056 67.0992 14.1504 67.0214 13.977C66.9437 13.8036 66.9031 13.6158 66.9023 13.4258ZM69.7969 13.041V12.6645L68.6973 12.7349C68.0771 12.7764 67.7959 12.9873 67.7959 13.3843C67.7959 13.7895 68.1474 14.0254 68.6309 14.0254C68.7725 14.0397 68.9156 14.0254 69.0516 13.9833C69.1876 13.9412 69.3138 13.8722 69.4226 13.7804C69.5313 13.6885 69.6205 13.5757 69.6849 13.4487C69.7492 13.3217 69.7873 13.183 69.7969 13.041Z" fill="white"/>
<path d="M71.8477 12.4448C71.8477 11.022 72.5791 10.1206 73.7168 10.1206C73.9982 10.1077 74.2775 10.1751 74.522 10.315C74.7666 10.4548 74.9662 10.6615 75.0977 10.9106H75.1641V8.4375H76.0527V14.6982H75.2012V13.9868H75.1309C74.9893 14.2343 74.7826 14.4383 74.5334 14.5768C74.2841 14.7153 74.0017 14.783 73.7168 14.7724C72.5713 14.7725 71.8477 13.8711 71.8477 12.4448ZM72.7657 12.4448C72.7657 13.3999 73.2159 13.9746 73.9688 13.9746C74.7178 13.9746 75.1807 13.3916 75.1807 12.4487C75.1807 11.5103 74.7129 10.919 73.9688 10.919C73.2207 10.919 72.7656 11.4976 72.7656 12.4448H72.7657Z" fill="white"/>
<path d="M79.7327 12.4458C79.7044 12.1498 79.7382 11.8513 79.8321 11.5692C79.9259 11.2871 80.0777 11.0278 80.2776 10.8078C80.4776 10.5878 80.7213 10.4121 80.9931 10.2918C81.265 10.1715 81.559 10.1094 81.8562 10.1094C82.1535 10.1094 82.4475 10.1715 82.7193 10.2918C82.9912 10.4121 83.2349 10.5878 83.4348 10.8078C83.6348 11.0278 83.7865 11.2871 83.8804 11.5692C83.9742 11.8513 84.0081 12.1498 83.9798 12.4458C84.0086 12.742 83.9752 13.041 83.8816 13.3235C83.788 13.606 83.6363 13.8658 83.4363 14.0862C83.2363 14.3067 82.9924 14.4828 82.7203 14.6033C82.4482 14.7239 82.1539 14.7861 81.8562 14.7861C81.5586 14.7861 81.2643 14.7239 80.9922 14.6033C80.72 14.4828 80.4761 14.3067 80.2761 14.0862C80.0762 13.8658 79.9245 13.606 79.8309 13.3235C79.7373 13.041 79.7039 12.742 79.7327 12.4458ZM83.0657 12.4458C83.0657 11.4697 82.6272 10.8989 81.8577 10.8989C81.0852 10.8989 80.6507 11.4697 80.6507 12.4458C80.6507 13.4297 81.0853 13.9961 81.8577 13.9961C82.6272 13.996 83.0657 13.4257 83.0657 12.4458Z" fill="white"/>
<path d="M85.1719 10.1949H86.0273V10.9102H86.0938C86.2064 10.6533 86.3964 10.4379 86.6373 10.2941C86.8782 10.1503 87.1579 10.0852 87.4375 10.1079C87.6566 10.0915 87.8766 10.1245 88.0812 10.2046C88.2858 10.2847 88.4698 10.4098 88.6194 10.5707C88.7691 10.7315 88.8807 10.924 88.9459 11.1338C89.0111 11.3436 89.0283 11.5654 88.9961 11.7827V14.6977H88.1074V12.0059C88.1074 11.2823 87.793 10.9224 87.1357 10.9224C86.987 10.9155 86.8385 10.9408 86.7004 10.9966C86.5624 11.0525 86.438 11.1375 86.3359 11.2459C86.2338 11.3543 86.1563 11.4834 86.1088 11.6246C86.0612 11.7657 86.0448 11.9154 86.0605 12.0635V14.6978H85.1719V10.1949Z" fill="white"/>
<path d="M94.0146 9.07422V10.2158H94.9902V10.9644H94.0146V13.2798C94.0146 13.7515 94.209 13.958 94.6514 13.958C94.7646 13.9576 94.8778 13.9508 94.9902 13.9375V14.6777C94.8307 14.7063 94.669 14.7215 94.5068 14.7231C93.5186 14.7231 93.125 14.3755 93.125 13.5073V10.9643H92.4102V10.2158H93.125V9.07422H94.0146Z" fill="white"/>
<path d="M96.207 8.4375H97.0879V10.919H97.1582C97.2763 10.6596 97.4716 10.443 97.7172 10.2987C97.9629 10.1543 98.2472 10.0893 98.5312 10.1123C98.7492 10.1004 98.967 10.1368 99.1693 10.2189C99.3716 10.3009 99.5533 10.4266 99.7014 10.5869C99.8495 10.7473 99.9604 10.9383 100.026 11.1465C100.092 11.3546 100.111 11.5747 100.082 11.791V14.6982H99.1924V12.0103C99.1924 11.291 98.8574 10.9268 98.2295 10.9268C98.0768 10.9142 97.9232 10.9352 97.7794 10.9883C97.6356 11.0413 97.5052 11.1252 97.3972 11.2339C97.2892 11.3426 97.2062 11.4737 97.1542 11.6178C97.1021 11.7619 97.0822 11.9157 97.0957 12.0683V14.6982H96.2071L96.207 8.4375Z" fill="white"/>
<path d="M105.261 13.4815C105.141 13.8931 104.879 14.249 104.522 14.4872C104.166 14.7253 103.737 14.8305 103.31 14.7842C103.014 14.7921 102.719 14.7353 102.446 14.6177C102.174 14.5002 101.93 14.3248 101.732 14.1036C101.534 13.8825 101.387 13.6209 101.3 13.3371C101.213 13.0533 101.19 12.754 101.23 12.46C101.191 12.1652 101.215 11.8652 101.301 11.5805C101.388 11.2959 101.535 11.0331 101.731 10.81C101.928 10.587 102.171 10.4088 102.443 10.2876C102.714 10.1664 103.009 10.105 103.306 10.1075C104.559 10.1075 105.315 10.9635 105.315 12.3775V12.6876H102.135V12.7374C102.121 12.9026 102.142 13.069 102.196 13.2257C102.251 13.3825 102.337 13.5262 102.45 13.6476C102.563 13.7691 102.7 13.8656 102.852 13.931C103.004 13.9964 103.169 14.0292 103.335 14.0274C103.547 14.0529 103.763 14.0146 103.953 13.9174C104.144 13.8202 104.302 13.6685 104.406 13.4815L105.261 13.4815ZM102.135 12.0303H104.41C104.421 11.8792 104.4 11.7274 104.35 11.5847C104.299 11.442 104.218 11.3115 104.114 11.2016C104.01 11.0918 103.883 11.005 103.743 10.9468C103.603 10.8886 103.453 10.8604 103.301 10.8638C103.148 10.8619 102.995 10.8908 102.853 10.9487C102.71 11.0067 102.581 11.0925 102.472 11.2012C102.364 11.3099 102.278 11.4393 102.22 11.5817C102.162 11.7241 102.133 11.8766 102.135 12.0303H102.135Z" fill="white"/>
</svg>
