<svg width="136" height="40" viewBox="0 0 136 40" fill="none" xmlns="http://www.w3.org/2000/svg">
<g clip-path="url(#clip0_349_1672)">
<path fill-rule="evenodd" clip-rule="evenodd" d="M130.498 40H5.50184C2.74512 40 0.5 37.7456 0.5 35V5C0.5 2.24439 2.74512 0 5.50184 0H130.498C133.252 0 135.5 2.24439 135.5 5V35C135.5 37.7456 133.252 40 130.498 40Z" fill="black"/>
<path fill-rule="evenodd" clip-rule="evenodd" d="M130.498 0.800499C132.81 0.800499 134.703 2.68828 134.703 5V35C134.703 37.3117 132.823 39.1995 130.498 39.1995H5.50184C3.18967 39.1995 1.29721 37.3117 1.29721 35V5C1.29721 2.68828 3.17725 0.800499 5.50184 0.800499H130.498ZM130.498 0H5.50184C2.74512 0 0.5 2.25436 0.5 5V35C0.5 37.7556 2.74512 40 5.50184 40H130.498C133.252 40 135.5 37.7556 135.5 35V5C135.5 2.25436 133.252 0 130.498 0Z" fill="#A6A6A6"/>
<path d="M71.6191 13.232C70.7176 13.232 69.9577 12.9153 69.3567 12.2918C68.7606 11.6858 68.4278 10.8504 68.4427 9.99755C68.4427 9.08732 68.7507 8.31675 69.3567 7.70577C69.9552 7.08233 70.7151 6.76562 71.6167 6.76562C72.5082 6.76562 73.2682 7.08233 73.8791 7.70577C74.4851 8.3367 74.7931 9.10727 74.7931 9.99755C74.7831 10.9103 74.4752 11.6808 73.8791 12.2893C73.2806 12.9177 72.5207 13.232 71.6191 13.232ZM44.7946 13.232C43.913 13.232 43.1481 12.9202 42.5222 12.3043C41.9013 11.6908 41.5859 10.9153 41.5859 10C41.5859 9.08483 41.9013 8.30927 42.5222 7.6958C43.1357 7.07984 43.9006 6.76812 44.7946 6.76812C45.2317 6.76812 45.6564 6.8554 46.0637 7.03246C46.4636 7.20453 46.7889 7.43894 47.0298 7.72572L47.0894 7.79804L46.4164 8.46139L46.3468 8.37909C45.9669 7.92523 45.4577 7.70328 44.7847 7.70328C44.1837 7.70328 43.6597 7.91774 43.2275 8.34169C42.7929 8.76812 42.5719 9.32672 42.5719 10.0025C42.5719 10.6783 42.7929 11.2369 43.2275 11.6634C43.6597 12.0873 44.1837 12.3018 44.7847 12.3018C45.4255 12.3018 45.9644 12.0873 46.3841 11.6634C46.6324 11.414 46.7864 11.0649 46.8411 10.6235H44.6829V9.69081H47.7674L47.7798 9.7756C47.8022 9.93271 47.8245 10.0948 47.8245 10.2444C47.8245 11.1048 47.5663 11.8005 47.0546 12.3143C46.4735 12.9227 45.7135 13.232 44.7946 13.232ZM80.4605 13.0998H79.5093L76.5961 8.41899L76.621 9.26188V13.0973H75.6698V6.90029H76.7551L76.7849 6.94767L79.5242 11.3566L79.4993 10.5162V6.90029H80.4605V13.0998ZM64.4716 13.0998H63.508V7.83296H61.8366V6.90029H66.1405V7.83296H64.4691V13.0998H64.4716ZM61.0518 13.0998H60.0906V6.90029H61.0518V13.0998ZM55.6501 13.0998H54.689V7.83296H53.0176V6.90029H57.3215V7.83296H55.6501V13.0998ZM52.4091 13.0898H48.7236V6.90029H52.4091V7.83296H49.6872V9.5337H52.1434V10.4564H49.6872V12.1571H52.4091V13.0898ZM70.062 11.6509C70.4916 12.0823 71.0132 12.2993 71.6191 12.2993C72.2425 12.2993 72.7516 12.0873 73.1763 11.6509C73.5985 11.227 73.8121 10.6709 73.8121 10C73.8121 9.32922 73.5985 8.77061 73.1788 8.34917C72.7491 7.91774 72.2251 7.70079 71.6216 7.70079C70.9983 7.70079 70.4891 7.91276 70.0669 8.34917C69.6447 8.77311 69.4312 9.32922 69.4312 10C69.4312 10.6709 69.6423 11.2295 70.062 11.6509Z" fill="white"/>
<path fill-rule="evenodd" clip-rule="evenodd" d="M68.3509 21.7564C66.0039 21.7564 64.1015 23.5444 64.1015 26.0108C64.1015 28.4546 66.0163 30.2651 68.3509 30.2651C70.6978 30.2651 72.6002 28.4646 72.6002 26.0108C72.6002 23.5444 70.6978 21.7564 68.3509 21.7564ZM68.3509 28.5793C67.0669 28.5793 65.9617 27.512 65.9617 26.0008C65.9617 24.4671 67.0694 23.4222 68.3509 23.4222C69.6348 23.4222 70.74 24.4671 70.74 26.0008C70.7425 27.522 69.6348 28.5793 68.3509 28.5793ZM59.0798 21.7564C56.7329 21.7564 54.8305 23.5444 54.8305 26.0108C54.8305 28.4546 56.7453 30.2651 59.0798 30.2651C61.4268 30.2651 63.3291 28.4646 63.3291 26.0108C63.3291 23.5444 61.4243 21.7564 59.0798 21.7564ZM59.0798 28.5793C57.7958 28.5793 56.6906 27.512 56.6906 26.0008C56.6906 24.4671 57.7983 23.4222 59.0798 23.4222C60.3638 23.4222 61.469 24.4671 61.469 26.0008C61.469 27.522 60.3638 28.5793 59.0798 28.5793ZM48.0479 23.0556V24.8561H52.3519C52.2203 25.8661 51.8875 26.6118 51.3784 27.123C50.7475 27.7564 49.774 28.4447 48.0579 28.4447C45.4129 28.4447 43.3441 26.3 43.3441 23.6442C43.3441 20.9883 45.4129 18.8437 48.0579 18.8437C49.4859 18.8437 50.5265 19.4098 51.2989 20.133L52.5705 18.8561C51.4976 17.8237 50.0695 17.0332 48.0678 17.0332C44.4394 17.0332 41.3945 20.0008 41.3945 23.6342C41.3945 27.2776 44.4369 30.2352 48.0678 30.2352C50.0273 30.2352 51.4976 29.5918 52.6599 28.3798C53.8445 27.1903 54.2195 25.512 54.2195 24.1579C54.2195 23.7364 54.1872 23.3574 54.1202 23.0357H48.0454C48.0479 23.0332 48.0479 23.0556 48.0479 23.0556ZM93.1713 24.4571C92.8162 23.502 91.7433 21.7464 89.5429 21.7464C87.3623 21.7464 85.5494 23.4696 85.5494 26.0008C85.5494 28.3898 87.3425 30.2551 89.754 30.2551C91.6911 30.2551 92.8187 29.0656 93.2831 28.3674L91.8451 27.3998C91.3683 28.1105 90.7052 28.5768 89.7639 28.5768C88.8127 28.5768 88.1471 28.1429 87.7051 27.2876L93.37 24.931C93.37 24.9335 93.1713 24.4571 93.1713 24.4571ZM87.3946 25.8786C87.3499 24.2352 88.6662 23.3998 89.6075 23.3998C90.35 23.3998 90.9684 23.7664 91.1795 24.3L87.3946 25.8786ZM82.7926 30.0008H84.6528V17.502H82.7926V30.0008ZM79.7379 22.7015H79.6708C79.2511 22.2003 78.4539 21.7464 77.4356 21.7464C75.3221 21.7464 73.3751 23.6142 73.3751 26.0133C73.3751 28.4023 75.3122 30.2477 77.4356 30.2477C78.4415 30.2477 79.2511 29.7913 79.6708 29.2801H79.7379V29.8911C79.7379 31.5145 78.8736 32.3898 77.4803 32.3898C76.3404 32.3898 75.6326 31.5669 75.3445 30.8786L73.7277 31.5569C74.1921 32.6791 75.4314 34.0681 77.4779 34.0681C79.6584 34.0681 81.5062 32.7788 81.5062 29.6342V22.0008H79.7478V22.7015C79.7503 22.7015 79.7379 22.7015 79.7379 22.7015ZM77.602 28.5793C76.3181 28.5793 75.2452 27.502 75.2452 26.0133C75.2452 24.512 76.3181 23.4247 77.602 23.4247C78.8736 23.4247 79.8596 24.5245 79.8596 26.0133C79.872 27.502 78.8761 28.5793 77.602 28.5793ZM101.881 17.502H97.4331V30.0008H99.2933V25.2676H101.884C103.942 25.2676 105.967 23.7689 105.967 21.3898C105.967 19.0108 103.95 17.502 101.881 17.502ZM101.936 23.522H99.2908V19.2327H101.936C103.329 19.2327 104.116 20.3873 104.116 21.3773C104.116 22.3574 103.319 23.522 101.936 23.522ZM113.422 21.734C112.071 21.734 110.678 22.3349 110.102 23.6442L111.751 24.3325C112.106 23.6442 112.757 23.4098 113.444 23.4098C114.408 23.4098 115.382 23.9883 115.404 25.0207V25.1529C115.071 24.9634 114.341 24.6741 113.467 24.6741C111.686 24.6741 109.881 25.6517 109.881 27.4846C109.881 29.1629 111.341 30.2402 112.968 30.2402C114.217 30.2402 114.905 29.6741 115.334 29.0182H115.401V29.9858H117.195V25.1978C117.195 22.9684 115.546 21.734 113.422 21.734ZM113.189 28.5793C112.58 28.5793 111.728 28.2801 111.728 27.512C111.728 26.5444 112.791 26.1778 113.698 26.1778C114.517 26.1778 114.905 26.3549 115.392 26.5993C115.257 27.7215 114.314 28.5694 113.189 28.5793ZM123.736 22.0008L121.6 27.4222H121.533L119.321 22.0008H117.319L120.639 29.5793L118.747 33.7913H120.684L125.793 22.0008H123.736ZM106.992 30.0008H108.852V17.502H106.992V30.0008Z" fill="white"/>
<path fill-rule="evenodd" clip-rule="evenodd" d="M10.892 7.53413C10.6039 7.84585 10.4375 8.32216 10.4375 8.9456V31.0578C10.4375 31.6813 10.6039 32.1576 10.9019 32.4568L10.9789 32.5242L23.3171 20.1351V19.8583L10.969 7.4668L10.892 7.53413Z" fill="url(#paint0_linear_349_1672)"/>
<path fill-rule="evenodd" clip-rule="evenodd" d="M27.4199 24.2763L23.3047 20.1441V19.8548L27.4199 15.7227L27.5093 15.7775L32.3771 18.5556C33.7704 19.3436 33.7704 20.6454 32.3771 21.4434L27.5093 24.2214L27.4199 24.2763Z" fill="url(#paint1_linear_349_1672)"/>
<path fill-rule="evenodd" clip-rule="evenodd" d="M27.5104 24.2219L23.3058 20L10.8906 32.4663C11.3451 32.9551 12.1076 33.01 12.9594 32.5337L27.5104 24.2219Z" fill="url(#paint2_linear_349_1672)"/>
<path fill-rule="evenodd" clip-rule="evenodd" d="M27.5104 15.7784L12.9594 7.47918C12.1076 6.9904 11.3426 7.05774 10.8906 7.54651L23.3058 20.0004L27.5104 15.7784Z" fill="url(#paint3_linear_349_1672)"/>
<path opacity="0.2" fill-rule="evenodd" clip-rule="evenodd" d="M27.4229 24.1328L12.9711 32.3772C12.164 32.8435 11.4438 32.8111 10.9793 32.3871L10.9023 32.4645L10.9793 32.5318C11.4438 32.9532 12.164 32.9881 12.9711 32.5218L27.5222 24.2226L27.4229 24.1328Z" fill="black"/>
<path opacity="0.12" fill-rule="evenodd" clip-rule="evenodd" d="M32.3797 21.2993L27.4102 24.1322L27.4996 24.2219L32.3673 21.4439C33.0652 21.0449 33.4079 20.5212 33.4079 20C33.3657 20.4788 33.0105 20.9327 32.3797 21.2993Z" fill="black"/>
<path opacity="0.25" fill-rule="evenodd" clip-rule="evenodd" d="M12.9608 7.62427L32.3795 18.7016C33.0103 19.0582 33.3655 19.5245 33.4201 20.0008C33.4201 19.4796 33.0774 18.9559 32.3795 18.5569L12.9608 7.47963C11.5675 6.67913 10.4375 7.34746 10.4375 8.94597V9.0906C10.4375 7.48961 11.5675 6.83375 12.9608 7.62427Z" fill="white"/>
</g>
<defs>
<linearGradient id="paint0_linear_349_1672" x1="22.2104" y1="8.70703" x2="2.43599" y2="13.9543" gradientUnits="userSpaceOnUse">
<stop stop-color="#00A0FF"/>
<stop offset="0.00657" stop-color="#00A1FF"/>
<stop offset="0.2601" stop-color="#00BEFF"/>
<stop offset="0.5122" stop-color="#00D2FF"/>
<stop offset="0.7604" stop-color="#00DFFF"/>
<stop offset="1" stop-color="#00E3FF"/>
</linearGradient>
<linearGradient id="paint1_linear_349_1672" x1="34.194" y1="19.9995" x2="10.0963" y2="19.9995" gradientUnits="userSpaceOnUse">
<stop stop-color="#FFE000"/>
<stop offset="0.4087" stop-color="#FFBD00"/>
<stop offset="0.7754" stop-color="#FFA500"/>
<stop offset="1" stop-color="#FF9C00"/>
</linearGradient>
<linearGradient id="paint2_linear_349_1672" x1="25.2241" y1="22.2973" x2="9.26136" y2="49.0538" gradientUnits="userSpaceOnUse">
<stop stop-color="#FF3A44"/>
<stop offset="1" stop-color="#C31162"/>
</linearGradient>
<linearGradient id="paint3_linear_349_1672" x1="7.76434" y1="0.179171" x2="14.886" y2="12.1291" gradientUnits="userSpaceOnUse">
<stop stop-color="#32A071"/>
<stop offset="0.0685" stop-color="#2DA771"/>
<stop offset="0.4762" stop-color="#15CF74"/>
<stop offset="0.8009" stop-color="#06E775"/>
<stop offset="1" stop-color="#00F076"/>
</linearGradient>
<clipPath id="clip0_349_1672">
<rect width="135" height="40" fill="white" transform="translate(0.5)"/>
</clipPath>
</defs>
</svg>
